<svg id="Layer_1" data-name="Layer 1" xmlns="http://www.w3.org/2000/svg" xmlns:xlink="http://www.w3.org/1999/xlink" viewBox="0 0 288 288"><defs><linearGradient id="linear-gradient" x1="183.68" y1="33.82" x2="44.1" y2="173.4" gradientUnits="userSpaceOnUse"><stop offset="0" stop-color="#fff"/><stop offset="1"/></linearGradient></defs><title>cors_bank_logo</title><path d="M176,144.52H100V144c13.8,13.64,27.93,32.74,20,51.19-4.16,9.67-12.88,15.64-17.33,18.86C84.31,227.3,61,249.65,40,289.48V290H232v-.52c-42.47-39.86-42.68-62.26-34-75.5,3.81-5.81,8.85-9.11,11.33-16.58,6.61-19.82-14.58-39.58-34-53.4" fill="#009245" stroke="#000" stroke-miterlimit="10" stroke-width="0.96"/><rect x="69.96" y="0.62" width="148.08" height="145.76" fill="#333"/><path d="M217.42,1.24V145.76H70.58V1.24H217.42M218.66,0H69.34V147H218.66V0Z"/><ellipse cx="144" cy="73.5" rx="55.55" ry="54.68" fill="url(#linear-gradient)"/><path d="M144,19.44c30.29,0,54.94,24.25,54.94,54.06S174.29,127.56,144,127.56,89.06,103.31,89.06,73.5,113.71,19.44,144,19.44m0-1.24C113,18.2,87.83,43,87.83,73.5S113,128.8,144,128.8,200.17,104,200.17,73.5,175,18.2,144,18.2Z"/><path d="M144,87.58A14.08,14.08,0,1,1,158.31,73.5,14.21,14.21,0,0,1,144,87.58Z" fill="gray"/><path d="M144,60A13.46,13.46,0,1,1,130.3,73.5,13.6,13.6,0,0,1,144,60m0-1.24a14.7,14.7,0,1,0,14.93,14.7A14.81,14.81,0,0,0,144,58.8Z"/><path d="M172.44,76.38c-7.87,0-12.89-1.7-12.89-2.88s5-2.88,12.89-2.88,12.89,1.7,12.89,2.88S180.31,76.38,172.44,76.38Z" fill="gray"/><path d="M172.44,71.24c7.12,0,11.53,1.4,12.23,2.26-.7.86-5.11,2.26-12.23,2.26s-11.53-1.4-12.23-2.26c.7-.86,5.11-2.26,12.23-2.26m0-1.24c-7.46,0-13.51,1.57-13.51,3.5s6,3.5,13.51,3.5S186,75.43,186,73.5s-6-3.5-13.51-3.5Z"/><path d="M144,114.18c-1.2,0-2.94-4.94-2.94-12.68S142.8,88.82,144,88.82s2.94,4.94,2.94,12.68S145.2,114.18,144,114.18Z" fill="gray"/><path d="M144,89.47c.74.56,2.32,4.48,2.32,12s-1.58,11.47-2.32,12c-.74-.56-2.32-4.48-2.32-12s1.58-11.47,2.32-12m0-1.27c-2,0-3.56,6-3.56,13.3s1.6,13.3,3.56,13.3,3.56-6,3.56-13.3S146,88.2,144,88.2Z"/><ellipse cx="115.56" cy="73.5" rx="12.89" ry="2.88" fill="gray"/><path d="M115.56,71.24c7.12,0,11.53,1.4,12.23,2.26-.7.86-5.11,2.26-12.23,2.26S104,74.36,103.33,73.5c.7-.86,5.11-2.26,12.23-2.26m0-1.24c-7.46,0-13.51,1.57-13.51,3.5s6,3.5,13.51,3.5,13.51-1.57,13.51-3.5S123,70,115.56,70Z"/><path d="M144,58.18c-1.2,0-2.94-4.94-2.94-12.68S142.8,32.82,144,32.82s2.94,4.94,2.94,12.68S145.2,58.18,144,58.18Z" fill="gray"/><path d="M144,33.47c.74.56,2.32,4.48,2.32,12S144.74,57,144,57.53c-.74-.56-2.32-4.48-2.32-12s1.58-11.47,2.32-12m0-1.27c-2,0-3.56,5.95-3.56,13.3S142,58.8,144,58.8s3.56-5.95,3.56-13.3S146,32.2,144,32.2Z"/><circle cx="270" cy="46" r="23" fill="#b3b3b3"/><circle cx="253" cy="60" r="23" fill="#b3b3b3"/><circle cx="270" cy="69" r="23" fill="#b3b3b3"/><circle cx="293" cy="46" r="23" fill="#b3b3b3"/><circle cx="293" cy="71" r="23" fill="#b3b3b3"/><circle cx="59" cy="176" r="19" fill="#b3b3b3"/><circle cx="76" cy="186" r="19" fill="#b3b3b3"/><circle cx="61" cy="197" r="19" fill="#b3b3b3"/><circle cx="40" cy="178" r="19" fill="#b3b3b3"/><circle cx="44" cy="195" r="19" fill="#b3b3b3"/><circle cx="25" cy="189" r="19" fill="#b3b3b3"/><circle cx="241.5" cy="209.5" r="14.5" fill="#b3b3b3"/><circle cx="233.5" cy="215.5" r="14.5" fill="#b3b3b3"/><circle cx="246.5" cy="221.5" r="14.5" fill="#b3b3b3"/><circle cx="252.5" cy="211.5" r="14.5" fill="#b3b3b3"/><circle cx="262.5" cy="214.5" r="14.5" fill="#b3b3b3"/><circle cx="265" cy="142" r="11" fill="#b3b3b3"/><circle cx="273" cy="153" r="11" fill="#b3b3b3"/><circle cx="274" cy="134" r="11" fill="#b3b3b3"/><circle cx="281" cy="143" r="11" fill="#b3b3b3"/><circle cx="285" cy="134" r="11" fill="#b3b3b3"/><circle cx="287" cy="145" r="11" fill="#b3b3b3"/><circle cx="20" cy="61" r="19" fill="#b3b3b3"/><circle cx="42" cy="67" r="19" fill="#b3b3b3"/><circle cx="23" cy="89" r="19" fill="#b3b3b3"/><circle cx="-1" cy="93" r="19" fill="#b3b3b3"/><circle cx="-5" cy="70" r="19" fill="#b3b3b3"/><circle cx="-1" cy="53" r="19" fill="#b3b3b3"/></svg>